<?xml version="1.0" encoding="utf-8"?>
<!-- Generator: Adobe Illustrator 19.0.0, SVG Export Plug-In . SVG Version: 6.00 Build 0)  -->
<svg version="1.1" id="Layer_1" xmlns="http://www.w3.org/2000/svg" xmlns:xlink="http://www.w3.org/1999/xlink" x="0px" y="0px"
	 viewBox="0 0 593.9 193.9" style="enable-background:new 0 0 593.9 193.9;" xml:space="preserve">
<style type="text/css">
	.st0{font-family:'IBMPlexSans-Text';}
	.st1{font-size:17.5285px;}
	.st2{fill:none;stroke:#000000;stroke-width:2;stroke-miterlimit:10;}
	.st3{fill:none;}
	.st4{stroke:#000000;stroke-width:0;stroke-linecap:round;stroke-linejoin:round;}
</style>
<g id="XMLID_2_">
	<path id="XMLID_21_" d="M119.5,38.9l-7.7-14.8h-0.3v53.4h-10.8V7.7h12.6l22.8,38.6l7.7,14.8h0.3V7.7h10.8v69.8h-12.6L119.5,38.9z"
		/>
	<path id="XMLID_23_" d="M172.1,77.5V7.7h44.7v10h-33.4v19.4h30.3v10h-30.3v20.4h33.4v10H172.1z"/>
	<path id="XMLID_25_" d="M241.7,77.5L225.2,7.7h11.5l7.1,33.6l4.9,23.2h0.3l5.6-23.2l8.3-33.6h12.6l8.2,33.6l5.5,23.1h0.3l5.1-23.1
		l7.3-33.6H313l-17.2,69.8h-12.7l-8.9-36.1L269,20.2h-0.2l-5.3,21.2l-9.1,36.1H241.7z"/>
	<path id="XMLID_27_" d="M347.6,77.5V7.7h44.7v10h-33.4v19.4h30.3v10h-30.3v20.4h33.4v10H347.6z"/>
	<path id="XMLID_29_" d="M406.8,7.7h24.7c17.8,0,29.5,11.6,29.5,34.9c0,23.3-11.7,34.9-29.5,34.9h-24.7V7.7z M431.6,67.5
		c10.4,0,17.4-6.7,17.4-19.3V37c0-12.6-7-19.3-17.4-19.3h-13.4v49.8H431.6z"/>
	<path id="XMLID_42_" d="M475.1,77.5V7.7h44.7v10h-33.4v19.4h30.3v10h-30.3v20.4h33.4v10H475.1z"/>
	<path id="XMLID_44_" d="M553.2,38.9l-7.7-14.8h-0.3v53.4h-10.8V7.7H547l22.8,38.6l7.7,14.8h0.3V7.7h10.8v69.8h-12.6L553.2,38.9z"/>
</g>
<g id="XMLID_4_">
	<path id="XMLID_5_" d="M124.2,161.8L101.3,92H113l11.1,34.5l6.7,24.3h0.4l6.8-24.3L149.1,92h11.4l-23.2,69.8H124.2z"/>
	<path id="XMLID_7_" d="M165.8,126.9c0-23.5,11.9-36.1,30.1-36.1s30.1,12.6,30.1,36.1c0,23.5-11.9,36.1-30.1,36.1
		S165.8,150.4,165.8,126.9z M213.9,132.4v-11c0-12.7-7.2-20.5-18-20.5s-18,7.8-18,20.5v11c0,12.7,7.2,20.5,18,20.5
		S213.9,145.1,213.9,132.4z"/>
	<path id="XMLID_10_" d="M252.7,161.8v-27.5l-24-42.3h12.9l17,31.1h0.3L275.8,92h12.4L264,134.1v27.7H252.7z"/>
	<path id="XMLID_12_" d="M335.4,161.8l-6.3-18.9H303l-6.1,18.9h-11.5L309.2,92h14.2l23.8,69.8H335.4z M316.3,102.4h-0.5l-10.1,30.8
		h20.6L316.3,102.4z"/>
	<path id="XMLID_15_" d="M400.8,151.2h-0.4c-1.4,6.7-8.2,11.8-18.8,11.8c-16.6,0-28.8-12.7-28.8-36.1c0-23.3,12.2-36.1,30.5-36.1
		c12.5,0,21.2,5.9,26,15.7l-9.2,5.4c-2.7-6.5-8.3-11-16.8-11c-11,0-18.4,7.5-18.4,20.3v11.4c0,12.8,7.4,20.3,18.4,20.3
		c8.8,0,16.5-4.5,16.5-13.2v-5.4h-14.4v-9.7h25.3v37.2h-9.9V151.2z"/>
	<path id="XMLID_17_" d="M426.4,161.8V92h44.7v10h-33.4v19.4H468v10h-30.3v20.4h33.4v10H426.4z"/>
	<path id="XMLID_19_" d="M481.1,151.2l7.8-7.3c4.9,6,10.7,9.1,18.3,9.1c8.9,0,13.5-4.4,13.5-11.1c0-5.4-2.8-8.5-10.9-10.1l-6.2-1.1
		c-13.5-2.5-20.4-8.8-20.4-19.9c0-12.4,9.6-20,24.4-20c10.5,0,18.2,3.8,23.6,10.7l-7.9,7c-3.6-4.7-8.6-7.7-16.3-7.7
		c-8,0-12.6,3.3-12.6,9.4c0,5.8,3.6,8.3,11.1,9.8l6.2,1.3c13.9,2.7,20.2,8.9,20.2,20c0,13-9.3,21.7-25.3,21.7
		C494.9,163,486.9,158.4,481.1,151.2z"/>
</g>
<text id="XMLID_3_" transform="matrix(1 0 0 1 99.4861 185.8037)" class="st0 st1">A SAWALAB COMPANY</text>
<path id="XMLID_39_" class="st2" d="M93.9,34.3c-34.3,0-62.2,27.8-62.2,62.2s27.8,62.2,62.2,62.2"/>
<path id="XMLID_38_" class="st2" d="M93.9,45.1C93.9,45.1,93.9,45.1,93.9,45.1c-28.4,0-51.4,23-51.4,51.4s23,51.4,51.4,51.4
	c0,0,0,0,0,0"/>
<line id="XMLID_37_" class="st3" x1="93.9" y1="64.2" x2="93.9" y2="128.7"/>
<path id="XMLID_36_" class="st2" d="M93.9,64.2c-17.8,0-32.3,14.4-32.3,32.3c0,17.8,14.4,32.3,32.3,32.3"/>
<path id="XMLID_35_" class="st4" d="M93.9,78C93.9,78,93.9,78,93.9,78c-10.2,0-18.5,8.3-18.5,18.5s8.3,18.5,18.5,18.5c0,0,0,0,0,0"
	/>
<path id="XMLID_34_" class="st2" d="M93.9,9.1C46.2,9.7,7.7,48.6,7.7,96.4s38.5,86.7,86.1,87.4"/>
<circle id="XMLID_33_" cx="43.9" cy="25.4" r="7.3"/>
<circle id="XMLID_32_" cx="63.8" cy="107.6" r="4.3"/>
<circle id="XMLID_31_" cx="75.4" cy="49.1" r="5.7"/>
<circle id="XMLID_30_" cx="57.3" cy="146.1" r="6.4"/>
</svg>
